# xmcd
#
# Track frame offsets:
#	150
#	1553
#	19327
#	36589
#	48031
#	55432
#	67170
#	77143
#	88510
#	97758
#	113134
#	124335
#	128637
#	143992
#	155362
#	158929
#	171356
#	185935
#	195587
#	206344
#	214795
#	220312
#	232990
#	245649
#	255091
#	267499
#	280491
#	286938
#	323758
#
# Disc length: 4357 seconds
#
# Revision: 0
# Processed by: cddbd v1.5.1PL0 Copyright (c) Steve Scherf et al.
# Submitted via: dBpowerAMP V4.0
#
DISCID=a811031d
DTITLE=D.J. Semi and Lloyd Banks - A South Side Story
DYEAR=2004
DGENRE=Rap
TTITLE0=Way Of The Warrior (Intro)
TTITLE1=Warrior (Ft.2Pac) (DJ Semi Remix)
TTITLE2=Im So Fly (Ft.Big L) (DJ Semi Remix)
TTITLE3=Poppin' Them Things (Ft.Notorious B.I.G.) (DJ Semi Remix)
TTITLE4=Prices On My Head
TTITLE5=Gangsta Shit (Ft.Big Pun) (DJ Semi Remix)
TTITLE6=Dear Father (Unreleased)
TTITLE7=Get Down (Ft.Prodigy)
TTITLE8=Its So Hard (Ft.The Game)
TTITLE9=Warrior Part 2 (Ft.Eminem, 50 Cent) (DJ Semi Remix)
TTITLE10=Take A Good Look (Unreleased)
TTITLE11=Shot Down (Freestyle)
TTITLE12=When The Chips Are Down (Ft.Notorious B.I.G.) (DJ Semi Remix)
TTITLE13=On Fire (DJ Semi Remix)
TTITLE14=I Love To Win (Exclusive Freestyle)
TTITLE15=The Setup (Ft.Jadakiss) (DJ Semi Remix)
TTITLE16=Just Another Day (Unreleased)
TTITLE17=Party Over Here (Ft.Rah Digga) (DJ Semi Remix)
TTITLE18=You (Ft.50 Cent)
TTITLE19=Da Shiznit (Classic Freestyle)
TTITLE20=Gotta Go
TTITLE21=Ride With You (Ft.Joe, Young Buck) (DJ Semi Remix)
TTITLE22=Steppin' It Hotter (Ft.Beyonce)
TTITLE23=Where Im From
TTITLE24=Bangers
TTITLE25=Never Gonna (Rare Classic) (Ft.Snoop Dogg, Nate Dogg)
TTITLE26=We From The Bottom
TTITLE27=A South Side Story
TTITLE28=DATA
EXTD=
EXTT0=
EXTT1=
EXTT2=
EXTT3=
EXTT4=
EXTT5=
EXTT6=
EXTT7=
EXTT8=
EXTT9=
EXTT10=
EXTT11=
EXTT12=
EXTT13=
EXTT14=
EXTT15=
EXTT16=
EXTT17=
EXTT18=
EXTT19=
EXTT20=
EXTT21=
EXTT22=
EXTT23=
EXTT24=
EXTT25=
EXTT26=
EXTT27=
EXTT28=
PLAYORDER=
